<?xml version="1.0" standalone="yes"?>
<svg xmlns="http://www.w3.org/2000/svg" width="755" height="729">
<path style="fill:#e4e4ed; stroke:none;" d="M0 0L0 729L755 729L755 0L745 0L745 713L4 713L4 0L0 0z"/>
<path style="fill:#110878; stroke:none;" d="M4 0L4 713L745 713L745 0L4 0z"/>
<path style="fill:#399cde; stroke:none;" d="M437 6L437 7L442 7L437 6M445 6L445 7L450 7L445 6M431.667 7.33331L432.333 7.66669L431.667 7.33331z"/>
<path style="fill:#e4e4ed; stroke:none;" d="M355 70L356 70C384.508 32.5789 438.259 17.5607 483.17 28.23C497.281 31.5823 508.398 38.2914 521 45C492.948 4.7038 434.787 -4.0329 394 21.3727C375.42 32.9457 363.296 50.0471 355 70z"/>
<path style="fill:#399cde; stroke:none;" d="M458.667 7.33331L459.333 7.66669L458.667 7.33331M427.667 8.33331L428.333 8.66669L427.667 8.33331M463 8L463 9L466 9L463 8M421.667 9.33331L422.333 9.66669L421.667 9.33331M468 9L469 10L468 9M418.667 10.3333L419.333 10.6667L418.667 10.3333M471.667 10.3333L472.333 10.6667L471.667 10.3333M415 11L416 12L415 11M474.667 11.3333L475.333 11.6667L474.667 11.3333M412 12L413 13L412 12M477 12L478 13L477 12M409.667 13.3333L410.333 13.6667L409.667 13.3333M480 13L481 14L480 13M407 14L408 15L407 14M482.667 14.3333L483.333 14.6667L482.667 14.3333M485 15L486 16L485 15M402.667 16.3333L403.333 16.6667L402.667 16.3333M487 16L488 17L487 16M401 17L402 18L401 17M437 17L437 18L442 18L437 17z"/>
<path style="fill:#110878; stroke:none;" d="M382 37C385.775 43.4259 397.801 34.1232 403 31.7701C427.12 20.8531 450.509 22.9831 476 23L476 19C443.549 14.8988 409.961 18.5596 382 37z"/>
<path style="fill:#399cde; stroke:none;" d="M462 17L462 18L468 18L462 17M399 18L400 19L399 18M430 18L430 19L433 19L430 18M472 18L472 19L475 19L472 18M490.667 18.3333L491.333 18.6667L490.667 18.3333M425 19L425 20L428 20L425 19M395 20L396 21L395 20M420.667 20.3333L421.333 20.6667L420.667 20.3333M476 20L476 23L477 23L476 20M494 20L495 21L494 20M393 21L394 22L393 21M417.667 21.3333L418.333 21.6667L417.667 21.3333M496 21L497 22L496 21M392 22L393 23L392 22M413 22L414 23L413 22M438 22L438 23L451 23L438 22M456 22L456 23L467 23L456 22M497 22L498 23L497 22M410.667 23.3333L411.333 23.6667L410.667 23.3333M430 23L430 24L436 24L430 23M467.667 23.3333L468.333 23.6667L467.667 23.3333M470 23L470 24L476 24L470 23M499 23L500 24L499 23M389 24L390 25L389 24M407 24L408 25L407 24M426 24L426 25L430 25L426 24M454 24L455 25L454 24M500 24L501 25L500 24M404 25L405 26L404 25M421 25L421 26L424 26L421 25M439 25L440 26L439 25M443 25L443 26L449 26L443 25M455.667 25.3333L456.333 25.6667L455.667 25.3333M459 25L459 26L467 26L459 25M502 25L503 26L502 25M386 26L387 27L386 26M402 26L403 27L402 26M418.667 26.3333L419.333 26.6667L418.667 26.3333M434 26L434 27L438 27L434 26M470 26L470 27L475 27L470 26M385 27L386 28L385 27M414.667 27.3333L415.333 27.6667L414.667 27.3333M427 27L427 28L431 28L427 27M477.667 27.3333L478.333 27.6667L477.667 27.3333M480 27L481 28L480 27M504 27L505 28L504 27M397 28L398 29L397 28M411 28L411 29L414 29L411 28M424 28L424 29L427 29L424 28M481 28L481 29L485 29L481 28M505 28L506 29L505 28M395 29L396 30L395 29M408.667 29.3333L409.333 29.6667L408.667 29.3333M418 29L418 30L422 30L418 29M487 29L488 30L487 29M506 29L507 30L506 29M393 30L394 31L393 30M405.667 30.3333L406.333 30.6667L405.667 30.3333M416.667 30.3333L417.333 30.6667L416.667 30.3333M490.667 30.3333L491.333 30.6667L490.667 30.3333M507 30L508 31L507 30M380 31L381 32L380 31M391 31L392 32L391 31M403.667 31.3333L404.333 31.6667L403.667 31.3333M412.667 31.3333L413.333 31.6667L412.667 31.3333M493.667 31.3333L494.333 31.6667L493.667 31.3333M379 32L380 33L379 32M389 32L390 33L389 32M401 32L402 33L401 32M409 32L409 33L412 33L409 32M496 32L497 33L496 32M510 32L511 33L510 32M378 33L379 34L378 33M387 33L388 34L387 33M399 33L400 34L399 33M407 33L408 34L407 33M498 33L498 34L501 34L498 33M511 33L512 34L511 33M377 34L378 35L377 34M385 34L386 35L385 34M396.667 34.3333L397.333 34.6667L396.667 34.3333M403.667 34.3333L404.333 34.6667L403.667 34.3333M501.667 34.3333L502.333 34.6667L501.667 34.3333M512 34L513 35L512 34M376 35L377 36L376 35M384 35L385 36L384 35M394.667 35.3333L395.333 35.6667L394.667 35.3333M401.667 35.3333L402.333 35.6667L401.667 35.3333M503.667 35.3333L504.333 35.6667L503.667 35.3333M513 35L514 36L513 35M375 36L376 37L375 36M392.667 36.3333L393.333 36.6667L392.667 36.3333M399.667 36.3333L400.333 36.6667L399.667 36.3333M505.667 36.3333L506.333 36.6667L505.667 36.3333M514 36L515 37L514 36M374 37L375 38L374 37M391 37L392 38L391 37M397 37L398 38L397 37M507.667 37.3333L508.333 37.6667L507.667 37.3333M515.333 37.6667L515.667 38.3333L515.333 37.6667M373 38L374 39L373 38M381 38L382 39L381 38M389 38L390 39L389 38M395 38L396 39L395 38M509.667 38.3333L510.333 38.6667L509.667 38.3333M382 39L383 40L382 39M387 39L388 40L387 39M392.667 39.3333L393.333 39.6667L392.667 39.3333M511 39L512 40L511 39M516 39L517 40L516 39M383 40L384 41L383 40M385.667 40.3333L386.333 40.6667L385.667 40.3333M391 40L392 41L391 40M513 40L514 41L513 40M517 40L518 41L517 40M389 41L390 42L389 41M518 41L519 42L518 41M387 42L388 43L387 42M516 42L517 43L516 42M519 42L520 43L519 42M369 43L370 44L369 43M385 43L386 44L385 43M517.667 43.3333L518.333 43.6667L517.667 43.3333M520 43L521 44L520 43M368 44L369 45L368 44M384 44L385 45L384 44M519 44L520 45L519 44M382 45L383 46L382 45M520.667 45.3333L521.333 45.6667L520.667 45.3333M381 46L382 47L381 46M477 46L477 47C513.865 59.0157 536.312 97.3527 509.714 131C504.736 137.296 498.809 142.742 492 147L492 148C522.98 138.128 541.204 98.5593 522.096 71C511.887 56.2767 493.874 49.4922 477 46M522 46L523 47L522 46M366 47L367 48L366 47M379 47L380 48L379 47M378 48L379 49L378 48M365 49L366 50L365 49M376 49L377 50L376 49M375 50L376 51L375 50M364 51L365 52L364 51M374 51L375 52L374 51M363.333 52.6667L363.667 53.3333L363.333 52.6667M371 53L372 54L371 53M362 54L363 55L362 54M370 54L371 55L370 54M369 55L370 56L369 55M361 56L362 57L361 56M368 56L369 57L368 56M401 56.5286C392.434 58.45 383.738 64.0816 378.394 71.0008C373.076 77.8867 376.885 82.9829 385 81.5355C393.495 80.0202 402.307 74.7025 407.722 67.9962C413.575 60.7481 410.273 54.4487 401 56.5286M360.333 57.6667L360.667 58.3333L360.333 57.6667M367 57L368 58L367 57M365.667 58.3333L366.333 58.6667L365.667 58.3333M359 59L360 60L359 59M358.333 61.6667L358.667 62.3333L358.333 61.6667M362 62L363 63L362 62M357.333 63.6667L357.667 64.3333L357.333 63.6667M361 63L362 64L361 63M360 64L361 65L360 64M356.333 65.6667L356.667 66.3333L356.333 65.6667M359 65L360 66L359 65M358 66L359 67L358 66M357.333 67.6667L357.667 68.3333L357.333 67.6667M355 68L356 69L355 68M356 69L357 70L356 69M355 70L356 71L355 70M354 71L355 72L354 71M545 76L546 77L545 76z"/>
<path style="fill:#e4e4ed; stroke:none;" d="M546 76L549 116C567.304 114.997 561.058 78.3517 546 76z"/>
<path style="fill:#399cde; stroke:none;" d="M549.667 76.3333L550.333 76.6667L549.667 76.3333M552 77L553 78L552 77M546 78L546 81L547 81L546 78M553 78L554 79L553 78M555 80L556 81L555 80M556.333 81.6667L556.667 82.3333L556.333 81.6667M547 83L547 87L548 87L547 83M557 84L557 89L558 89L557 84M548 87L548 95L549 95L548 87M558 90L558 93L559 93L558 90M549 96L550 97L549 96M548 97L549 98L548 97M549 98L550 99L549 98M559 98L559 102L560 102L559 98M339 99L336 103L339 99z"/>
<path style="fill:#e4e4ed; stroke:none;" d="M340 99C332.522 107.415 333.781 135.325 347 138L340 99z"/>
<path style="fill:#399cde; stroke:none;" d="M340.333 103.667L340.667 104.333L340.333 103.667M335 104L336 105L335 104M549 104L549 107L550 107L549 104M560 105L560 109L561 109L560 105M334 107L334 110L335 110L334 107M341 108L341 114L342 114L341 108M559.333 109.667L559.667 110.333L559.333 109.667M335 111L335 116L336 116L335 111M548 111L548 117L552 117L552 116L549 116L548 111M558.333 111.667L558.667 112.333L558.333 111.667M557 113L558 114L557 113M556 114L557 115L556 114M554 115L555 116L554 115M272 117L272 118L276 117L272 117z"/>
<path style="fill:#e4e4ed; stroke:none;" d="M328 170C320.728 166.378 307.843 156.844 306.077 148.424C304.845 142.552 306.636 136.011 306 130C299.401 137.048 298.392 147.191 292.926 154.851C291.249 157.202 286.788 158.892 285.867 154.851C284.641 149.481 291.149 143.483 291.408 138C291.714 131.521 282.149 117.093 275 117.546C271.241 117.783 268.368 121.591 265 122.995C261.742 124.353 258.087 124.178 255.738 127.228C251.303 132.989 252.9 143.366 253.715 150C256.086 169.293 261.769 188.26 276.09 202.169C280.047 206.012 287.019 214.558 293 214.783C301.778 215.113 313.587 197.312 318.09 191C322.563 184.731 326.681 177.662 328 170z"/>
<path style="fill:#399cde; stroke:none;" d="M277 117L278 118L277 117M336 117L336 123L337 123L336 117M342 119L342 123L343 123L342 119M281 120L282 121L281 120M282 121L283 122L282 121M266 122L267 123L266 122M263.667 123.333L264.333 123.667L263.667 123.333M343 123L343 127L344 127L343 123M257.667 124.333L258.333 124.667L257.667 124.333M256 125L257 126L256 125M285 125L286 126L285 125M337 125L337 130L338 130L337 125M255 126L256 127L255 126M254 128L255 129L254 128M287 128L288 129L287 128M344 128L344 132L345 132L344 128M305 129L306 134L307 134L305 129M253 130L253 134L254 134L253 130M289 131L290 132L289 131M304 131L305 132L304 131M338 132L339 133L338 132M345.333 132.667L345.667 133.333L345.333 132.667M290 133L291 134L290 133M302 134L303 135L302 134M339 134L340 135L339 134M291 135L292 136L291 135M340 135L341 136L340 135M301 136L302 137L301 136M306 136L306 143L307 143L306 136M341 136L342 137L341 136M346 136L347 137L346 136M292 137L293 138L292 137M342.667 137.333L343.333 137.667L342.667 137.333M534 137L533 141L534 141L534 137M252 138L252 143L253 143L252 138M300 138L301 139L300 138M344 138L344 139L347 139L344 138M291 139L292 140L291 139z"/>
<path style="fill:#e4e4ed; stroke:none;" d="M533 139L534 140L533 139z"/>
<path style="fill:#399cde; stroke:none;" d="M299 140L300 141L299 140z"/>
<path style="fill:#e4e4ed; stroke:none;" d="M532 140C495.394 188.044 420.996 193.495 372 164C376.688 174.054 389.432 182.136 399 187.218C431.452 204.456 471.036 202.152 501 180.702C511.383 173.269 520.197 163.86 526.934 153C529.208 149.335 532.73 144.385 532 140z"/>
<path style="fill:#399cde; stroke:none;" d="M290 141L291 142L290 141M298 142L299 143L298 142M530 142L531 143L530 142M532 142L533 143L532 142M529 143L530 144L529 143M297.333 144.667L297.667 145.333L297.333 144.667M528 144L529 145L528 144M531 144L532 145L531 144M527 145L528 146L527 145M296.333 146.667L296.667 147.333L296.333 146.667M526 146L527 147L526 146M530 146L531 147L530 146M525 147L526 148L525 147M253 148L253 153L254 153L253 148M287 148L288 149L287 148M305 148L306 149L305 148M524 148L525 149L524 148M529 148L530 149L529 148M295 149L296 150L295 149M306.333 149.667L306.667 150.333L306.333 149.667M523 149L524 150L523 149M522 150L523 151L522 150M528 150L529 151L528 150M294 151L295 152L294 151M521 151L522 152L521 151M285.333 152.667L285.667 153.333L285.333 152.667M520 152L521 153L520 152M527 152L528 153L527 152M293.333 153.667L293.667 154.333L293.333 153.667M518 153L519 154L518 153M526 153L527 154L526 153M517 154L518 155L517 154M285.333 155.667L285.667 156.333L285.333 155.667M292.333 155.667L292.667 156.333L292.333 155.667M516 155L517 156L516 155M525 155L526 156L525 155M515 156L516 157L515 156M524 156L525 157L524 156M254 157L254 160L255 160L254 157M286.667 157.333L287.333 157.667L286.667 157.333M291 157L292 158L291 157M513 157L514 158L513 157M512 158L513 159L512 158M523 158L524 159L523 158M510.667 159.333L511.333 159.667L510.667 159.333M522 159L523 160L522 159M255 160L255 164L256 164L255 160M509 160L510 161L509 160M521 160L522 161L521 160M508 161L509 162L508 161M369 162L372 165L369 162M506 162L507 163L506 162M520 162L521 163L520 162M318 163L319 164L318 163M504 163L505 164L504 163M519 163L520 164L519 163M319 164L320 165L319 164M373 164L374 165L373 164M503 164L504 165L503 164M518 164L519 165L518 164M320 165L321 166L320 165M374 165L375 166L374 165M501.667 165.333L502.333 165.667L501.667 165.333M517 165L518 166L517 165M256 166L256 169L257 169L256 166M375.667 166.333L376.333 166.667L375.667 166.333M499.667 166.333L500.333 166.667L499.667 166.333M516 166L517 167L516 166M323 167L324 168L323 167M377.667 167.333L378.333 167.667L377.667 167.333M497 167L498 168L497 167M324 168L325 169L324 168M374 168L375 169L374 168M379 168L380 169L379 168M495 168L496 169L495 168M515 168L516 169L515 168M257 169L257 172L258 172L257 169M356 169L356 170L361 170L356 169z"/>
<path style="fill:#e4e4ed; stroke:none;" d="M302 221C316.945 225.263 331.431 226 347 226C352.266 226 363.855 223.34 368.35 225.479C374.728 228.514 367.32 233.125 364 234L364 239L409 240.91L435 236C433.018 227.672 435.279 219.713 443.004 215.075C449.319 211.283 456.958 211.592 464 210.572C477.639 208.596 493.221 203.567 507 205L505 193C473.168 200.364 448.437 213.033 415 202.795C401.378 198.624 389.082 191.337 378 182.486C373.618 178.986 369.171 171.465 363.83 169.693C358.481 167.918 342.369 170.192 337.275 172.6C332.784 174.722 330.322 184.817 327.796 189C320.555 200.993 310.101 209.862 302 221z"/>
<path style="fill:#399cde; stroke:none;" d="M365 169L366 170L365 169M375 169L376 170L375 169M381 169L382 170L381 169M493.667 169.333L494.333 169.667L493.667 169.333M348 170L348 171L352 171L348 170M376 170L377 171L376 170M383 170L384 171L383 170M491.667 170.333L492.333 170.667L491.667 170.333M513 170L514 171L513 170M338 171L338 172L344 172L338 171M366 171L367 172L366 171M377 171L378 172L377 171M384.667 171.333L385.333 171.667L384.667 171.333M488.667 171.333L489.333 171.667L488.667 171.333M512 171L513 172L512 171M335 172L336 173L335 172M367 172L368 173L367 172M378 172L379 173L378 172M387.667 172.333L388.333 172.667L387.667 172.333M486 172L487 173L486 172M511 172L512 173L511 172M327 173L328 174L327 173M368 173L369 174L368 173M379 173L380 174L379 173M390 173L391 174L390 173M483 173L483 174L486 174L483 173M509 173L510 174L509 173M258 174L259 175L258 174M369 174L370 175L369 174M380 174L381 175L380 174M392.667 174.333L393.333 174.667L392.667 174.333M480.667 174.333L481.333 174.667L480.667 174.333M489 175L489 176L496 177L489 175M508 174L509 175L508 174M259 175L259 178L260 178L259 175M326.333 175.667L326.667 176.333L326.333 175.667M334 175L335 176L334 175M370 175L371 176L370 175M382 175L383 176L382 175M394 175L394 176L397 176L394 175M477.667 175.333L478.333 175.667L477.667 175.333z"/>
<path style="fill:#110878; stroke:none;" d="M409 185C410.277 192.352 423.886 191.693 430 191.961C452.898 192.963 473.863 187.198 495 179C492.527 171.575 481.121 179.015 476 180.656C452.716 188.116 432.637 185.065 409 185z"/>
<path style="fill:#399cde; stroke:none;" d="M507 175L508 176L507 175M371 176L372 177L371 176M383 176L384 177L383 176M398 176L399 177L398 176M474 176L474 177L477 177L474 176M486.667 176.333L487.333 176.667L486.667 176.333M506 176L507 177L506 176M372 177L373 178L372 177M384 177L385 178L384 177M401.667 177.333L402.333 177.667L401.667 177.333M470 177L470 178L473 178L470 177M483.667 177.333L484.333 177.667L483.667 177.333M505 177L506 178L505 177M260.333 178.667L260.667 179.333L260.333 178.667M373 178L374 179L373 178M385 178L386 179L385 178M403 178L403 179L406 179L403 178M466 178L466 179L469 179L466 178M480 178L480 179L483 179L480 178M504 178L505 179L504 178M374 179L375 180L374 179M386 179L387 180L386 179M409.667 179.333L410.333 179.667L409.667 179.333M462 179L462 180L465 180L462 179M478.667 179.333L479.333 179.667L478.667 179.333M493.667 179.333L494.333 179.667L493.667 179.333M502 179L503 180L502 179M324 180L325 181L324 180M332 180L333 181L332 180M375 180L376 181L375 180M388 180L389 181L388 180M412 180L412 181L416 181L412 180M456 180L456 181L460 181L456 180M475.667 180.333L476.333 180.667L475.667 180.333M491.667 180.333L492.333 180.667L491.667 180.333M501 180L502 181L501 180M261 181L262 182L261 181M376 181L379 183L376 181M389 181L390 182L389 181M419 181L419 182L425 182L419 181M447 181L447 182L451 182L447 181M471 181L471 182L474 182L471 181M488.667 181.333L489.333 181.667L488.667 181.333M499.667 181.333L500.333 181.667L499.667 181.333M323 182L324 183L323 182M331 182L332 183L331 182M391 182L392 183L391 182M429 182L429 183L433 183L429 182M434 182L434 183L442 183L434 182M468.667 182.333L469.333 182.667L468.667 182.333M486 182L487 183L486 182M498 182L499 183L498 182M262 183L264 186L262 183M379 183L380 184L379 183M392 183L393 184L392 183M463 183L463 184L466 184L463 183M483 183L483 184L486 184L483 183M497 183L498 184L497 183M330 184L331 185L330 184M380 184L381 185L380 184M393.667 184.333L394.333 184.667L393.667 184.333M409 184L409 185L414 185L409 184M457 184L457 185L462 185L457 184M481.667 184.333L482.333 184.667L481.667 184.333M495 184L496 185L495 184M321 185L322 186L321 185M395 185L396 186L395 185M408 185L408 189L409 189L408 185M417 185L417 186L422 186L417 185M453 185L453 186L457 186L453 185M477.667 185.333L478.333 185.667L477.667 185.333M493.667 185.333L494.333 185.667L493.667 185.333M329 186L330 187L329 186M383 186L384 187L383 186M397 186L398 187L397 186M425 186L425 187L434 187L425 186M435 186L435 187L449 187L435 186M474 186L474 187L477 187L474 186M491.667 186.333L492.333 186.667L491.667 186.333M264 187L265 188L264 187M320 187L321 188L320 187M384 187L385 188L384 187M399 187L400 188L399 187M470 187L470 188L473 188L470 187M490 187L491 188L490 187M385.667 188.333L386.333 188.667L385.667 188.333M400.667 188.333L401.333 188.667L400.667 188.333M466 188L466 189L470 189L466 188M488 188L489 189L488 188M265 189L266 190L265 189M387 189L388 190L387 189M402.667 189.333L403.333 189.667L402.667 189.333M409.667 189.333L410.333 189.667L409.667 189.333M461 189L461 190L466 190L461 189M486 189L487 190L486 189M266 190L267 191L266 190M318 190L319 191L318 190M388.667 190.333L389.333 190.667L388.667 190.333M404.667 190.333L405.333 190.667L404.667 190.333M412 190L412 191L417 191L412 190M457 190L457 191L461 191L457 190M483.667 190.333L484.333 190.667L483.667 190.333M317 191L318 192L317 191M326 191L327 192L326 191M390 191L391 192L390 191M407 191L408 192L407 191M419 191L419 192L426 192L419 191M446 191L447 192L446 191M448 191L448 192L452 192L448 191M481.667 191.333L482.333 191.667L481.667 191.333M267 192L268 193L267 192M392 192L393 193L392 192M409 192L409 193L412 193L409 192M430 192L430 193L434 193L430 192M437 192L437 193L443 193L437 192M479.667 192.333L480.333 192.667L479.667 192.333M503 192L503 193L505 195L506 195L503 192M268 193L269 194L268 193M316 193L317 194L316 193M393.667 193.333L394.333 193.667L393.667 193.333M412.667 193.333L413.333 193.667L412.667 193.333M476.667 193.333L477.333 193.667L476.667 193.333M501.667 193.333L502.333 193.667L501.667 193.333M269.333 194.667L269.667 195.333L269.333 194.667M315 194L316 195L315 194M324 194L325 195L324 194M395.667 194.333L396.333 194.667L395.667 194.333M415 194L416 195L415 194M472 194L472 195L475 195L472 194M498.667 194.333L499.333 194.667L498.667 194.333M314 195L315 196L314 195M397 195L398 196L397 195M418 195L418 196L421 196L418 195M470.667 195.333L471.333 195.667L470.667 195.333M492 195L492 196L497 196L492 195M270 196L271 197L270 196M399 196L400 197L399 196M421 196L421 197L424 197L421 196M464 196L464 197L468 197L464 196M490.667 196.333L491.333 196.667L490.667 196.333M271 197L272 198L271 197M322 197L323 198L322 197M401 197L402 198L401 197M426 197L426 198L430 198L426 197M461 197L461 198L464 198L461 197M488 197L489 198L488 197M506 197L506 203L507 203L506 197M272 198L273 199L272 198M403.667 198.333L404.333 198.667L403.667 198.333M430 198L430 199L435 199L430 198M436 198L436 199L439 199L436 198M454 198L454 199L458 199L454 198M486.667 198.333L487.333 198.667L486.667 198.333M311 199L312 200L311 199M405.667 199.333L406.333 199.667L405.667 199.333M444 199L444 200L449 200L444 199M484.667 199.333L485.333 199.667L484.667 199.333M274 200L275 201L274 200M310 200L311 201L310 200M408.667 200.333L409.333 200.667L408.667 200.333M481.667 200.333L482.333 200.667L481.667 200.333M275 201L278 204L275 201M309 201L310 202L309 201M319 201L320 202L319 201M411.667 201.333L412.333 201.667L411.667 201.333M478.667 201.333L479.333 201.667L478.667 201.333M318 202L319 203L318 202M413 202L413 203L416 203L413 202M475 202L475 203L478 203L475 202z"/>
<path style="fill:#e4e4ed; stroke:none;" d="M515 202C515.294 208.344 518.769 212.235 520.751 218C525 230.357 528.046 247.536 524 260C538.927 257.588 547.967 277.73 563.856 269.995C572.005 266.027 563.665 254.542 560.359 250C553.883 241.103 544.638 235.715 537.015 227.996C529.03 219.912 523.058 209.902 515 202z"/>
<path style="fill:#399cde; stroke:none;" d="M417.667 203.333L418.333 203.667L417.667 203.333M471.667 203.333L472.333 203.667L471.667 203.333M507.333 203.667L507.667 204.333L507.333 203.667M516 203L517 204L516 203M278 204L279 205L278 204M421 204L421 205L424 205L421 204M467 204L467 205L470 205L467 204M502 204L502 205L505 205L502 204M517 204L518 205L517 204M279 205L280 206L279 205M424 205L424 206L429 206L424 205M461 205L461 206L465 206L461 205M498 205L498 206L502 206L498 205M280 206L281 207L280 206M304 206L305 207L304 206M431 206L431 207L439 207L431 206M440.667 206.333L441.333 206.667L440.667 206.333M450 206L450 207L461 207L450 206M490 206L490 207L495 207L490 206M281 207L282 208L281 207M303 207L304 208L303 207M314 207L315 208L314 207M442 207L443 208L442 207M482 207L482 208L487 208L482 207M515.333 207.667L515.667 208.333L515.333 207.667M519 207L520 208L519 207M282 208L283 209L282 208M302 208L303 209L302 208M313 208L314 209L313 208M474 208L474 209L481 209L474 208M520 208L521 209L520 208M283 209L286 211L283 209M301 209L302 210L301 209M470 209L470 210L474 210L470 209M300 210L301 211L300 210M464 210L464 211L467 211L464 210M516 210L517 211L516 210M286 211L287 212L286 211M299 211L300 212L299 211M455 211L455 212L460 212L455 211M517 211L518 212L517 211M522 211L523 212L522 211M287 212L288 213L287 212M298 212L299 213L298 212M448 212L448 213L453 213L448 212M502 212L502 213L506 213L502 212M523 212L524 213L523 212M289 213L290 214L289 213M297 213L298 214L297 213M446.667 213.333L447.333 213.667L446.667 213.333z"/>
<path style="fill:#e4e4ed; stroke:none;" d="M502 213L509 260C522.52 256.775 516.706 238.117 515.079 228C514.454 224.11 514.311 219.312 511.566 216.228C508.996 213.341 505.601 213.087 502 213z"/>
<path style="fill:#399cde; stroke:none;" d="M508 213L509 214L508 213M290 214L291 215L290 214M295 214L296 215L295 214M307 214L306 216L308 216L307 214M443 214L444 215L443 214M490 214L490 215L495 216L490 214M519 214L520 215L519 214M292 215L293 216L292 215M294 215L295 216L294 215M441 215L442 216L441 215M484 215L484 216L487 216L484 215z"/>
<path style="fill:#e4e4ed; stroke:none;" d="M454 220L461 267L501 262L499 252C494.873 254.366 490.962 256.994 486 255.782C471.959 252.355 471.565 231.681 486 228.548C489.753 227.733 493.381 229.173 497 230L493.4 216.029L483 215.95L454 220z"/>
<path style="fill:#399cde; stroke:none;" d="M511 215L512 216L511 215M305 216L306 217L305 216M440 216L441 217L440 216M475 216L475 217L479 217L475 216M520.333 216.667L520.667 217.333L520.333 216.667M526 216L527 217L526 216M304 217L305 218L304 217M439 217L440 218L439 217M468 217L468 218L472 218L468 217M502 217L502 220L503 220L502 217M527 217L528 218L527 217M303 218L304 219L303 218M438 218L439 219L438 218M462 218L462 219L466 219L462 218M513 218L514 219L513 218M528 218L529 219L528 218M302 219L303 220L302 219M437 219L438 220L437 219M457.667 219.333L458.333 219.667L457.667 219.333M495 219L495 222L496 222L495 219M301 220L302 221L301 220M453 220L454 221L453 220M521.333 220.667L521.667 221.333L521.333 220.667M303.667 221.333L304.333 221.667L303.667 221.333M436 221L437 222L436 221M305.667 222.333L306.333 222.667L305.667 222.333M435.333 222.667L435.667 223.333L435.333 222.667M446 222L446 225L447 225L446 222M514 222L514 225L515 225L514 222M308 223L309 224L308 223z"/>
<path style="fill:#e4e4ed; stroke:none;" d="M445 223C442.084 229.06 441.929 235.205 448 239L445 223z"/>
<path style="fill:#399cde; stroke:none;" d="M454 223L454 226L455 226L454 223M532 223L533 224L532 223M310 224L310 225L315 225L310 224M367 224L368 225L367 224M533 224L534 225L533 224M318 225L318 226L327 226L318 225M330.667 225.333L331.333 225.667L330.667 225.333M363 225L363 226L366 226L363 225M368.667 225.333L369.333 225.667L368.667 225.333M434 225L434 228L435 228L434 225M443 225L444 226L443 225M503 225L503 228L504 228L503 225M534 225L535 226L534 225M333 226L334 227L333 226M337 226L337 227L361 227L337 226M370 226L371 227L370 226M496 226L496 229L497 229L496 226M522.333 226.667L522.667 227.333L522.333 226.667M535 226L536 227L535 226M371 227L371 230L372 230L371 227M442 227L442 235L443 235L442 227M536 227L537 228L536 227M447 228L447 233L448 233L447 228M485.667 228.333L486.333 228.667L485.667 228.333M491 228L492 229L491 228M515 228L515 231L516 231L515 228M537 228L538 229L537 228M455 229L455 232L456 232L455 229M482 229L483 230L482 229M494 229L495 230L494 229M538 229L539 230L538 229M480 230L481 231L480 230M496 230L497 231L496 230M539 230L540 231L539 230M370 231L371 232L370 231M434 231L434 235L435 235L434 231M479 231L480 232L479 231M540 231L541 232L540 231M369 232L370 233L369 232M478 232L479 233L478 232M504 232L504 235L505 235L504 232M541 232L542 233L541 232M315 233L315 238L321 233L315 233z"/>
<path style="fill:#e4e4ed; stroke:none;" d="M319 233L320 234L319 233z"/>
<path style="fill:#399cde; stroke:none;" d="M365.667 233.333L366.333 233.667L365.667 233.333M477 233L478 234L477 233M523 233L523 236L524 236L523 233M542 233L543 234L542 233z"/>
<path style="fill:#e4e4ed; stroke:none;" d="M316 237L319 234L316 237z"/>
<path style="fill:#399cde; stroke:none;" d="M354 234L354 237L356 237L356 234L354 234M363.333 234.667L363.667 235.333L363.333 234.667M448 234L448 240L449 240L448 234M486 235L486 236L490 236L486 235M515.333 235.667L515.667 236.333L515.333 235.667M545 235L546 236L545 235M430 236L430 237L434 237L430 236M443 236L444 237L443 236z"/>
<path style="fill:#e4e4ed; stroke:none;" d="M485.228 237.029C478.623 241.023 485.871 250.337 491.771 246.218C498.046 241.836 491.363 233.318 485.228 237.029M355 237L355 241L356 241L355 237z"/>
<path style="fill:#399cde; stroke:none;" d="M428.667 237.333L429.333 237.667L428.667 237.333M445 237L446 238L445 237M456 237L456 240L457 240L456 237M475 237L476 238L475 237M483 237L484 238L483 237M493 237L494 238L493 237M505 237L505 240L506 240L505 237M516 237L516 241L517 241L516 237M524 237L524 241L525 241L524 237M334 239L334 240L347 239L334 239M422 238L422 239L426 239L422 238M446 238L447 239L446 238M549 238L550 239L549 238M323 242L329 240L323 242z"/>
<path style="fill:#e4e4ed; stroke:none;" d="M347 239C341.392 239 330.008 237.097 325.407 240.938C321.389 244.294 324.711 266.808 328.6 269.821C331.071 271.736 335.237 270.782 338 270.181C351.925 267.151 349.008 249.776 347 239z"/>
<path style="fill:#399cde; stroke:none;" d="M356 239L357 240L356 239M365 239L365 240L371 240L365 239M417 239L417 240L422 240L417 239M482 239L483 240L482 239M494 239L495 240L494 239M550 239L551 240L550 239M347.333 240.667L347.667 241.333L347.333 240.667M373 240L373 241L380 241L373 240M412 240L412 241L415 241L412 240M551 240L552 241L551 240M384 241L384 242L406 242L384 241M506 241L506 246L507 246L506 241M525 241L525 247L526 247L525 241M552 241L553 242L552 241M323 243L323 247L324 247L323 243M435 243L436 244L435 243z"/>
<path style="fill:#e4e4ed; stroke:none;" d="M436 243.639C416.601 246.919 397.949 251.076 378 248.715C372.988 248.121 361.239 244.246 358.269 250.148C353.528 259.572 370.551 261.218 376 261.827C394.074 263.848 423.119 266.683 439.891 258.181C446.906 254.625 444.689 242.17 436 243.639z"/>
<path style="fill:#399cde; stroke:none;" d="M440 243L441 244L440 243M494 243L495 244L494 243M432.667 244.333L433.333 244.667L432.667 244.333M457 244L457 248L458 248L457 244M482 244L483 245L482 244M517 244L517 248L518 248L517 244M348 245L348 249L349 249L348 245M428 245L429 246L428 245M483 245L484 246L483 245M493 245L494 246L493 245M361 246L361 247L365 247L361 246M423.667 246.333L424.333 246.667L423.667 246.333M475 246L476 247L475 246M484 246L485 247L484 246M492 246L493 247L492 246M557 246L558 247L557 246M368 247L368 248L372 248L368 247M416 247L416 248L419 248L416 247M444 247L444 253L445 253L444 247M485 247L485 248L488 248L485 247M490.667 247.333L491.333 247.667L490.667 247.333M558 247L559 248L558 247M376 248L376 249L383 249L376 248M406 248L406 249L411 249L406 248M507 248L507 253L508 253L507 248M458.333 249.667L458.667 250.333L458.333 249.667M476 249L477 250L476 249M357 250L358 251L357 250M477 250L478 251L477 250M526 250L526 253L527 253L526 250M560 250L561 251L560 250M498 251L499 254L500 254L500 251L498 251M561 251L562 252L561 251M479 252L480 253L479 252M497 252L498 253L497 252M348 253L348 262L349 262L348 253M357 253L357 256L358 256L357 253M459 253L459 258L460 258L459 253M480 253L481 254L480 253M496 253L497 254L496 253M508 253L508 259L509 259L508 253M517.333 253.667L517.667 254.333L517.333 253.667M324 254L324 257L325 257L324 254M481.667 254.333L482.333 254.667L481.667 254.333M494.667 254.333L495.333 254.667L494.667 254.333M525.333 254.667L525.667 255.333L525.333 254.667M563 254L564 255L563 254M443 255L444 256L443 255M484.667 255.333L485.333 255.667L484.667 255.333M491.667 255.333L492.333 255.667L491.667 255.333M500 255L500 259L501 259L500 255M488 256L488 257L491 257L488 256M516 256L517 257L516 256M564 256L565 257L564 256M358 257L359 258L358 257M441.667 257.333L442.333 257.667L441.667 257.333M451 257L450 260L451 257M515 257L516 258L515 257M524.333 257.667L524.667 258.333L524.333 257.667M325 258L325 263L326 263L325 258M359 258L360 259L359 258M440 258L441 259L440 258M513.667 258.333L514.333 258.667L513.667 258.333M565 258L566 259L565 258M360 259L360 260L364 260L360 259M435 259L435 260L439 260L435 259z"/>
<path style="fill:#e4e4ed; stroke:none;" d="M451 259L448 263L448 264L453 267L451 259z"/>
<path style="fill:#399cde; stroke:none;" d="M512 259L513 260L512 259M523 259L523 261L525 261L523 259M526 259L526 260L531 260L526 259M365 260L365 261L370 261L365 260M431 260L431 261L434 261L431 260M531.667 260.333L532.333 260.667L531.667 260.333M566 260L567 261L566 260M370 261L370 262L374 262L370 261M422 261L422 262L428 262L422 261M449 261L450 262L449 261M452 261L452 266L453 266L452 261M460 261L460 265L461 265L460 261M499 261L500 262L499 261M522 261L523 262L522 261M533 261L534 262L533 261z"/>
<path style="fill:#e9172b; stroke:none;" d="M585 266C596.277 301.268 608.438 335.131 625.781 368C635.485 386.391 647.765 403.034 658 421C667.156 415.707 674.694 406.599 681.961 399C702.391 377.634 724.829 352.019 733.14 323C737.333 308.358 737.694 292.512 725.91 281.174C714.556 270.249 697.145 265.899 682 263.729C650.326 259.191 616.498 260.149 585 266z"/>
<path style="fill:#399cde; stroke:none;" d="M378 262L378 263L384 263L378 262M386 262L386 263L389 263L386 262M405 262L406 263L405 262M413 262L413 263L419 263L413 262M448 262L449 263L448 262M494 262L494 263L497 263L494 262M535 262L536 263L535 262M567 262L568 263L567 262M347 263L347 266L348 266L347 263M394 263L394 264L399 264L394 263M406 263L407 264L406 263M447 263L448 264L447 263M485 263L485 264L490 264L485 263M537 263L538 264L537 263M326 264L326 268L327 268L326 264M448 264L449 265L448 264M477 264L477 265L483 265L477 264M539 264L540 265L539 264M449 265L450 266L449 265M470 265L470 266L476 266L470 265M540.667 265.333L541.333 265.667L540.667 265.333M567 265L567 268L568 268L567 265M346 266L347 267L346 266M355.667 266.333L356.333 266.667L355.667 266.333M450 266L451 267L450 266M465 266L465 267L470 267L465 266M542 266L543 267L542 266M345 267L346 268L345 267z"/>
<path style="fill:#e4e4ed; stroke:none;" d="M355 267C349.284 279.248 334.723 280.647 323 278C329.463 292.652 346.982 289.738 360 293L357 267L355 267z"/>
<path style="fill:#399cde; stroke:none;" d="M431 268L431 269L438 268L431 268z"/>
<path style="fill:#e4e4ed; stroke:none;" d="M366 269C366.358 277.325 366.999 291.663 370.988 299C381.516 318.36 402.175 324.621 420 334C433.791 307.729 462.886 299.003 491 299C487.154 288.057 478.11 283.968 467 285.134C463.622 285.489 452.705 290.632 451.106 285.903C449.062 279.853 463.485 278.159 467 277.593C474.287 276.417 480.134 280.444 487 280.356C492.079 280.292 498.055 275.894 503 274.407C507.163 273.156 513.669 272.549 515 268L457 275.87L438 267.831L407 271.91L366 269z"/>
<path style="fill:#399cde; stroke:none;" d="M440 267L441 268L440 267M451 267L451 268L454 268L451 267M461 267L462 268L461 267M513.667 267.333L514.333 267.667L513.667 267.333M543 267L544 268L543 267M575 267L576 268L575 267z"/>
<path style="fill:#e4e4ed; stroke:none;" d="M576 267C571.045 276.956 560.122 282.165 549 279.467C544.773 278.441 541.476 274.57 537 274.813C522.89 275.58 506.397 281.642 493 286L504 312C534.834 312 563.779 324.432 580.911 351C611.146 397.89 586.149 466.311 530 478.489C482.98 488.687 434.395 457.651 427.428 409C424.259 386.87 438.096 352.532 411.961 338.832C406.249 335.838 390.986 327.299 385 327.618C374.737 328.165 361.563 339.436 353 344.601C327.005 360.283 301.509 380.012 281.576 403C274.156 411.557 265.551 419.524 262.924 430.985C258.403 450.715 274.407 467.296 280 485C290.968 483.051 301.962 475.68 312 470.941C331.991 461.505 351.916 451.913 372 442.691C381.576 438.295 397.14 426.552 408 428.569C425.511 431.82 427.064 453.221 413 461.648C375.973 483.834 333.284 496.243 296 518C302.263 532.61 309.239 554.797 323 563.756C341.909 576.068 376.168 568.928 397 564.664C462.343 551.291 519.419 523.225 575.015 486.946C594.712 474.093 613.522 459.803 631.576 444.745C637.217 440.04 648.2 434.115 650.839 426.999C652.327 422.985 647.942 418.981 645.861 416C640.233 407.936 634.853 399.585 630.028 391.015C615.198 364.673 601.798 337.304 591.064 309C586.618 297.276 584.497 275.956 576 267z"/>
<path style="fill:#399cde; stroke:none;" d="M577 267L578 268L577 267M343.667 268.333L344.333 268.667L343.667 268.333M354.333 268.667L354.667 269.333L354.333 268.667M365 268L365 272L366 272L367 268L365 268M441 268L442 269L441 268M506 268L506 269L510 269L506 268M515 268L515 271L516 271L515 268M545 268L546 269L545 268M578.333 268.667L578.667 269.333L578.333 268.667M341.667 269.333L342.333 269.667L341.667 269.333M357 269L357 275L358 275L357 269M369 269L369 270L374 270L369 269M425 269L425 270L429 270L425 269M442 269L443 270L442 269M497 269L497 270L500 270L497 269M546 269L547 270L546 269M565 269L566 270L565 269M327.667 270.333L328.333 270.667L327.667 270.333M336 270L336 271L340 271L336 270M353 270L354 271L353 270M374.667 270.333L375.333 270.667L374.667 270.333M378 270L378 271L384 271L378 270M414 270L414 271L421 271L414 270M443 270L444 271L443 270M490 270L490 271L493 271L490 270M547 270L548 271L547 270M563 270L564 271L563 270M331 271L332 272L331 271M333 271L333 272L336 272L333 271M352 271L353 272L352 271M389 271L389 272L394 272L389 271M395 271L395 272L411 272L395 271M444 271L445 272L444 271M484 271L484 272L487 272L484 271M512 271L512 272L515 272L512 271M548 271L548 272L552 272L548 271M557 271L557 272L562 272L557 271M351 272L352 273L351 272M478 272L478 273L481 273L478 272M508.667 272.333L509.333 272.667L508.667 272.333M573 272L574 273L573 272M350 273L351 274L350 273M447 273L448 274L447 273M470 273L470 274L473 274L470 273M506.667 273.333L507.333 273.667L506.667 273.333M579 273L580 274L579 273M349 274L350 275L349 274M366 274L366 279L367 279L366 274M449 274L450 275L449 274M464.667 274.333L465.333 274.667L464.667 274.333M502 274L503 275L502 274M536.667 274.333L537.333 274.667L536.667 274.333M571 274L572 275L571 274M347.667 275.333L348.333 275.667L347.667 275.333M358 275L358 280L359 280L358 275M452 275L452 276L461 276L452 275M499 275L500 276L499 275M532.667 275.333L533.333 275.667L532.667 275.333M570 275L571 276L570 275M322 276L322 278L324 278L322 276M345.667 276.333L346.333 276.667L345.667 276.333M496.667 276.333L497.333 276.667L496.667 276.333M528.667 276.333L529.333 276.667L528.667 276.333M542 276L543 277L542 276M568 276L569 277L568 276M580.333 276.667L580.667 277.333L580.333 276.667M342.667 277.333L343.333 277.667L342.667 277.333M467 277L467 278L475 278L467 277M494 277L495 278L494 277M524.667 277.333L525.333 277.667L524.667 277.333M543 277L544 278L543 277M566 277L567 278L566 277M325 278L325 279L328 279L325 278M338.667 278.333L339.333 278.667L338.667 278.333M461.667 278.333L462.333 278.667L461.667 278.333M479.667 278.333L480.333 278.667L479.667 278.333M520.667 278.333L521.333 278.667L520.667 278.333M545 278L546 279L545 278M563 278L564 279L563 278M323.333 279.667L323.667 280.333L323.333 279.667M328 279L328 280L332 280L328 279M334.667 279.333L335.333 279.667L334.667 279.333M367 279L367 285L368 285L367 279M458 279L459 280L458 279M483 279L484 280L483 279M490 279L491 280L490 279M515.667 279.333L516.333 279.667L515.667 279.333M548.667 279.333L549.333 279.667L548.667 279.333M557 279L557 280L561 280L557 279M581.333 279.667L581.667 280.333L581.333 279.667M454 280L455 281L454 280M485 280L486 281L485 280M488 280L489 281L488 280M511.667 280.333L512.333 280.667L511.667 280.333M324.333 281.667L324.667 282.333L324.333 281.667M359 281L359 284L360 284L359 281M452 281L453 282L452 281M507.667 281.333L508.333 281.667L507.667 281.333M504 282L505 283L504 282M325 283L326 284L325 283M450 283L451 284L450 283M499.667 283.333L500.333 283.667L499.667 283.333M582.333 283.667L582.667 284.333L582.333 283.667M326 284L327 285L326 284M470 284L470 285L473 285L470 284M497 284L498 285L497 284M327 285L328 286L327 285M463.667 285.333L464.333 285.667L463.667 285.333M477 285L478 286L477 285M494 285L495 286L494 285M329 286L330 287L329 286M368 286L368 291L369 291L368 286M450 286L451 287L450 286M460 286L461 287L460 286M480.667 286.333L481.333 286.667L480.667 286.333M583 286L584 287L583 286M331 287L332 288L331 287M456 287L457 288L456 287M333.667 288.333L334.333 288.667L333.667 288.333M360 288L360 293L361 293L360 288M452 288L452 289L455 289L452 288M484 288L485 289L484 288M335 289L335 290L338 290L335 289M485 289L486 290L485 289M494 289L495 290L494 289M584 289L585 290L584 289M340.667 290.333L341.333 290.667L340.667 290.333M343.667 290.333L344.333 290.667L343.667 290.333M486 290L487 291L486 290M495 290L496 291L495 290M345 291L345 292L350 292L345 291M352.667 291.333L353.333 291.667L352.667 291.333M354 292L354 293L359 293L354 292M487 292L488 293L487 292M496 292L497 293L496 292M488 293L489 294L488 293M585 293L586 294L585 293M369 294L369 298L370 298L369 294M497 294L498 295L497 294M489 295L490 296L489 295M586 295L587 296L586 295z"/>
<path style="fill:#e9172b; stroke:none;" d="M360 331C313.746 302.589 260.709 286.717 207 302.721C193.72 306.677 158.926 316.845 161.228 335C161.878 340.128 165.17 344.383 170.004 346.16C185.026 351.684 201.739 352.778 217 358.533C232.116 364.234 246.781 372.483 260 381.72C264.347 384.758 272.608 393.651 278 393.658C283.992 393.666 293.594 380.862 298 376.95C309.724 366.542 321.92 356.67 335 348.004C342.938 342.745 353.811 338.225 360 331z"/>
<path style="fill:#399cde; stroke:none;" d="M498 296L499 297L498 296M499 298L500 299L499 298M587 298L588 299L587 298M370 299L371 300L370 299M480 299L480 300L483 300L480 299M489.667 299.333L490.333 299.667L489.667 299.333M371 300L372 301L371 300M471 300L471 301L474 301L471 300M500 300L501 301L500 300M372 301L373 302L372 301M465 301L465 302L468 302L465 301M588 301L589 302L588 301M373 302L374 303L373 302M462.667 302.333L463.333 302.667L462.667 302.333M501 302L502 303L501 302M374 303L375 304L374 303M458 303L459 304L458 303M375 304L376 305L375 304M454.667 304.333L455.333 304.667L454.667 304.333M589 304L590 305L589 304M376 305L377 306L376 305M452 305L453 306L452 305M502 305L503 306L502 305M377 306L378 307L377 306M449 306L450 307L449 306M482 306L482 307L486 307L482 306M489 306L489 307L495 309C495.542 305.715 491.575 306.042 489 306M378 307L379 308L378 307M447 307L448 308L447 307M475.667 307.333L476.333 307.667L475.667 307.333z"/>
<path style="fill:#e4e4ed; stroke:none;" d="M477 307.439C458.427 310.333 433.116 316.714 427.808 338C426.093 344.876 433.165 353.78 435.731 360C445.421 383.492 457.31 407.982 487 402.381C509.521 398.132 502.278 374.576 494.742 360C492.793 356.232 488.982 352.191 488.183 348C486.064 336.888 511.25 307.002 486 307C482.983 307 479.99 306.973 477 307.439z"/>
<path style="fill:#399cde; stroke:none;" d="M590 307L591 308L590 307M379 308L380 309L379 308M445 308L446 309L445 308M470.667 308.333L471.333 308.667L470.667 308.333M503 308L504 309L503 308M380 309L381 310L380 309M443 309L444 310L443 309M464.667 309.333L465.333 309.667L464.667 309.333M381 310L382 311L381 310M441 310L442 311L441 310M460.667 310.333L461.333 310.667L460.667 310.333M496.333 310.667L496.667 311.333L496.333 310.667M591 310L592 311L591 310M382 311L383 312L382 311M457 311L458 312L457 311M383 312L384 313L383 312M438 312L439 313L438 312M454.667 312.333L455.333 312.667L454.667 312.333M504 312L504 313L516 313L504 312M592 312L593 313L592 312M384 313L385 314L384 313M437 313L438 314L437 313M452 313L453 314L452 313M523 313L524 314L523 313M385 314L386 315L385 314M435 314L436 315L435 314M449 314L450 315L449 314M527 314L527 315L530 315L527 314M593 314L594 315L593 314M386 315L387 316L386 315M434 315L435 316L434 315M447 315L448 316L447 315M532 315L533 316L532 315M387 316L388 317L387 316M446 316L447 317L446 316M535.667 316.333L536.333 316.667L535.667 316.333M388 317L389 318L388 317M444 317L445 318L444 317M497 317L498 318L497 317M539 317L540 318L539 317M594 317L595 318L594 317M389 318L390 319L389 318M430 318L431 319L430 318M541 318L542 319L541 318M390 319L391 320L390 319M429 319L430 320L429 319M441 319L442 320L441 319M544 319L545 320L544 319M391 320L392 321L391 320M428 320L429 321L428 320z"/>
<path style="fill:#e9172b; stroke:none;" d="M504 320L503 328C516.732 327.924 528.432 329.118 541 335.259C549.936 339.625 558.073 346.075 564.101 354C579.706 374.513 583.724 401.328 572.677 425C554.334 464.304 501.706 477.751 468 449.674C457.213 440.689 448.372 428.67 444.641 415C441.321 402.835 443.188 391.865 436 381C422.496 412.305 450.808 453.23 478 465.691C521.512 485.631 575.155 460.736 585.196 413C588.108 399.156 587.504 385.491 583.187 372C578.36 356.918 568.67 343.891 556 334.478C540.329 322.837 522.97 320 504 320z"/>
<path style="fill:#399cde; stroke:none;" d="M546 320L547 321L546 320M595 320L596 321L595 320M392 321L393 322L392 321M427 321L428 322L427 321M548 321L549 322L548 321M394 322L395 323L394 322M426.333 322.667L426.667 323.333L426.333 322.667M437 322L438 323L437 322M496 322L497 323L496 322M550 322L551 323L550 322M596 322L597 323L596 322M395 323L396 324L395 323M436 323L437 324L436 323M397 324L398 325L397 324M425 324L426 325L425 324M435 324L436 325L435 324M553 324L554 325L553 324M597 324L598 325L597 324M399.667 325.333L400.333 325.667L399.667 325.333M424 325L425 326L424 325M434 325L435 326L434 325M495.333 325.667L495.667 326.333L495.333 325.667M555 325L556 326L555 325M384 326L384 327L387 327L384 326M401.667 326.333L402.333 326.667L401.667 326.333M383 327L384 328L383 327M387 327L388 328L387 327M404 327L405 328L404 327M423 327L424 328L423 327M433 327L434 328L433 327M558 327L559 328L558 327M598 327L599 328L598 327M381 328L382 329L381 328M389 328L390 329L389 328M407 328L407 329L410 329L407 328M432 328L433 329L432 328M379 329L380 330L379 329M390 329L391 330L390 329M410.667 329.333L411.333 329.667L410.667 329.333M422 329L423 330L422 329M494 329L495 330L494 329M561 329L562 330L561 329M599 329L600 330L599 329M377.667 330.333L378.333 330.667L377.667 330.333M392 330L393 331L392 330M413 330L414 331L413 330M421.333 330.667L421.667 331.333L421.333 330.667M431 330L432 331L431 330M562 330L563 331L562 330M375 331L376 332L375 331M393.667 331.333L394.333 331.667L393.667 331.333M415 331L416 332L415 331M430 331L431 332L430 331M563 331L564 332L563 331M373 332L374 333L373 332M395.667 332.333L396.333 332.667L395.667 332.333M417 332L418 333L417 332M493 332L494 333L493 332M397.667 333.333L398.333 333.667L397.667 333.333M418 333L419 334L418 333M420 333L421 334L420 333M429 333L430 334L429 333M566 333L567 334L566 333M400 334L401 335L400 334M492 334L493 335L492 334M567 334L568 335L567 334M601 334L602 335L601 334M368 335L369 336L368 335M402 335L402 336L405 336L402 335M428 335L429 336L428 335M450 401C450.286 414.795 456.654 427.826 465.729 437.961C473.441 446.574 484.615 453.314 496 455.714C506.729 457.975 518.502 457.811 529 454.706C559.941 445.556 577.916 410.708 569.406 380C562.209 354.03 531.032 327.617 502.225 336.318C489.613 340.127 501.984 357.091 504.691 363C508.437 371.175 512.252 380.88 510.532 390C507.311 407.082 485.68 415.201 470 411.24C462.257 409.284 456.636 405.132 450 401M568 335L569 336L568 335M366 336L367 337L366 336M405 336L405 337L408 337L405 336M602 336L603 337L602 336M409 337L410 338L409 337M427.333 337.667L427.667 338.333L427.333 337.667M491 337L492 338L491 337M570 337L571 338L570 337M363 338L364 339L363 338M411.667 338.333L412.333 338.667L411.667 338.333M571 338L572 339L571 338M603.333 338.667L603.667 339.333L603.333 338.667M361 339L362 340L361 339M413 339L414 340L413 339M426 339L426 342L427 342L426 339M490 339L491 340L490 339M572 339L573 340L572 339M359 340L360 341L359 340M415 340L416 341L415 340M358 341L359 342L358 341M416 341L416 343L418 343L416 341M356 342L357 343L356 342M427 343L428 344L427 343M488 343L489 344L488 343M575 343L576 344L575 343M605 343L606 344L605 343M353 344L354 345L353 344M428.333 344.667L428.667 345.333L428.333 344.667M576 344L577 345L576 344M351 345L352 346L351 345M419 345L420 346L419 345M606 345L607 346L606 345M429.333 346.667L429.667 347.333L429.333 346.667M487 346L487 349L488 349L487 346M348 347L349 348L348 347M420 347L421 348L420 347M578 347L579 348L578 347M607 347L608 348L607 347M421.333 348.667L421.667 349.333L421.333 348.667M430 348L431 349L430 348M579 348L580 349L579 348M345 349L346 350L345 349M608 349L609 350L608 349M343 350L344 351L343 350M422.333 350.667L422.667 351.333L422.333 350.667M431.333 350.667L431.667 351.333L431.333 350.667M342 351L343 352L342 351M489 351L490 352L489 351M581 351L582 352L581 351M609 351L610 352L609 351M340 352L341 353L340 352M423 352L424 353L423 352M339 353L340 354L339 353M432 353L433 354L432 353M424.333 354.667L424.667 355.333L424.333 354.667M433.333 354.667L433.667 355.333L433.333 354.667M491 354L492 355L491 354M336 355L337 356L336 355M611 355L612 356L611 355M434.333 356.667L434.667 357.333L434.333 356.667M333 357L334 358L333 357M425 357L426 358L425 357M584 357L585 358L584 357M612 357L613 358L612 357M332 358L333 359L332 358M426 358L426 361L427 361L426 358M585 358L586 359L585 358M435.333 359.667L435.667 360.333L435.333 359.667M494 359L495 360L494 359M329 360L330 361L329 360M586 360L587 361L586 360M427 361L428 362L427 361M495 361L496 362L495 361M436 362L437 363L436 362M614 362L615 363L614 362M325 363L326 364L325 363M428.333 363.667L428.667 364.333L428.333 363.667M437 363L437 366L438 366L437 363M496 363L497 364L496 363M587 363L588 364L587 363M324 364L325 365L324 364M615 364L616 365L615 364M497 365L498 366L497 365M588 365L589 366L588 365M616 365L617 366L616 365M321 366L322 367L321 366M429.333 366.667L429.667 367.333L429.333 366.667M438.333 366.667L438.667 367.333L438.333 366.667M320 367L321 368L320 367M498 367L499 368L498 367M589 367L590 368L589 367M617 367L618 368L617 367M430 368L430 372L431 372L430 368M439 369L440 370L439 369M618 369L619 370L618 369M316 370L317 371L316 370M499.333 370.667L499.667 371.333L499.333 370.667M590.333 370.667L590.667 371.333L590.333 370.667M315 371L316 372L315 371M440.333 371.667L440.667 372.333L440.333 371.667M619 371L620 372L619 371M500 372L500 375L501 375L500 372M312 373L313 374L312 373M429.333 373.667L429.667 374.333L429.333 373.667M441.333 373.667L441.667 374.333L441.333 373.667M620 373L621 374L620 373M311 374L312 375L311 374M591.333 374.667L591.667 375.333L591.333 374.667M310 375L311 376L310 375M442 375L443 376L442 375M501 375L501 378L502 378L501 375M621 375L622 376L621 375M428 376L428 380L429 380L428 376M443.333 377.667L443.667 378.333L443.333 377.667M592.333 377.667L592.667 378.333L592.333 377.667M622 377L623 378L622 377M306 378L307 379L306 378M305 379L306 380L305 379M444.333 379.667L444.667 380.333L444.333 379.667M502 379L502 384L503 384L502 379M623 379L624 380L623 379M304 380L305 381L304 380M303 381L304 382L303 381M445 381L446 382L445 381M624 381L625 382L624 381M302 382L303 383L302 382M446.333 382.667L446.667 383.333L446.333 382.667M625.333 382.667L625.667 383.333L625.333 382.667M427 383L427 387L428 387L427 383M593 383L593 386L594 386L593 383M447.333 384.667L447.667 385.333L447.333 384.667M626.333 384.667L626.667 385.333L626.333 384.667M298.667 385.333L299.333 385.667L298.667 385.333M297 386L298 387L297 386M448 386L449 387L448 386M449 388L450 389L449 388M502 388L502 392L503 392L502 388M294 389L295 390L294 389M450 389L451 390L450 389M293 390L294 391L293 390M451 390L452 391L451 390M629 390L630 391L629 390M292 391L293 392L292 391M452.333 391.667L452.667 392.333L452.333 391.667M630.333 391.667L630.667 392.333L630.333 391.667M291 392L292 393L291 392M501.333 392.667L501.667 393.333L501.333 392.667M290 393L291 394L290 393M453 393L454 394L453 393M594 393L594 398L595 398L594 393M631 393L632 394L631 393M289 394L290 395L289 394M454 394L455 395L454 394M632 394L633 395L632 394M288 395L289 396L288 395M455 395L456 396L455 395M500 395L501 396L500 395M287 396L288 397L287 396M457 396L458 397L457 396M499 396L500 397L499 396M633 396L634 397L633 396M286 397L287 398L286 397M458 397L459 398L458 397M498 397L499 398L498 397M285 398L286 399L285 398M459 398L460 399L459 398M497 398L498 399L497 398M634 398L635 399L634 398M284 399L285 400L284 399M460.667 399.333L461.333 399.667L460.667 399.333M495 399L496 400L495 399M635.333 399.667L635.667 400.333L635.333 399.667M462 400L463 401L462 400M493.667 400.333L494.333 400.667L493.667 400.333M464.667 401.333L465.333 401.667L464.667 401.333M491.667 401.333L492.333 401.667L491.667 401.333M636.333 401.667L636.667 402.333L636.333 401.667M467 402L467 403L470 403L467 402M486 402L486 403L489 403L486 402M281 403L282 404L281 403M471 403L471 404L474 404L471 403M475 403L475 404L486 404L475 403M280 404L281 405L280 404M638 404L639 405L638 404M279 405L280 406L279 405M278 406L279 407L278 406M427 406L427 410L428 410L427 406M639 406L640 407L639 406M277 407L278 408L277 407M593.333 407.667L593.667 408.333L593.333 407.667M640.333 407.667L640.667 408.333L640.333 407.667M276 408L277 409L276 408M275 409L276 410L275 409M641 409L642 410L641 409M642.333 410.667L642.667 411.333L642.333 410.667M273 412L274 413L273 412M643 412L644 413L643 412M272 413L273 414L272 413M428 413L428 416L429 416L428 413M592.333 413.667L592.667 414.333L592.333 413.667M271 414L272 415L271 414M270 415L271 416L270 415M645 415L646 416L645 415M646.333 416.667L646.667 417.333L646.333 416.667M591 417L592 418L591 417M268 418L269 419L268 418M429 418L429 421L430 421L429 418M647 418L648 419L647 418M267 419L268 420L267 419M648 419L649 420L648 419M590.333 420.667L590.667 421.333L590.333 420.667M266 421L267 422L266 421M430 421L430 424L431 424L430 421M650 422L651 423L650 422M265 423L266 424L265 423M431.333 424.667L431.667 425.333L431.333 424.667M589 424L590 425L589 424M264 425L265 426L264 425M652.333 425.667L652.667 426.333L652.333 425.667M263.333 427.667L263.667 428.333L263.333 427.667M432.333 427.667L432.667 428.333L432.333 427.667M588 427L589 428L588 427M651 427L652 428L651 427M403 428L403 429L409 429L403 428M650 428L651 429L650 428M399.667 429.333L400.333 429.667L399.667 429.333M411 429L412 430L411 429M433.333 429.667L433.667 430.333L433.333 429.667M587 429L588 430L587 429M649 429L650 430L649 429M262 430L262 433L263 433L262 430M397 430L398 431L397 430M648 430L649 431L648 430M395 431L396 432L395 431M415 431L416 432L415 431M434.333 431.667L434.667 432.333L434.333 431.667M647 431L648 432L647 431M393 432L394 433L393 432M416 432L417 433L416 432M586 432L587 433L586 432M391 433L392 434L391 433M389 434L390 435L389 434M435 434L436 435L435 434M585 434L586 435L585 434M643 434L644 435L643 434M262 435L263 436L262 435M419 435L420 436L419 435M642 435L643 436L642 435M384 436L385 437L384 436z"/>
<path style="fill:#e9172b; stroke:none;" d="M403 436.649C389.995 439.886 377.156 448.421 365 454C333.86 468.293 303.446 484.404 272 498C265.343 500.878 254.254 504.37 249.703 510.213C245.793 515.232 247.525 523.725 254.04 525.566C265.017 528.667 284.382 515.022 294 510.248C321.413 496.64 349.323 483.854 377 470.781C387.537 465.804 404.753 461.492 412.697 452.787C419.362 445.483 412.516 434.28 403 436.649z"/>
<path style="fill:#399cde; stroke:none;" d="M436 436L437 437L436 436M584 436L585 437L584 436M641 436L642 437L641 436M261.333 437.667L261.667 438.333L261.333 437.667M382 437L383 438L382 437M437.333 437.667L437.667 438.333L437.333 437.667M640 437L641 438L640 437M380 438L381 439L380 438M421 438L422 439L421 438M583 438L584 439L583 438M639 438L640 439L639 438M378 439L379 440L378 439M438.333 439.667L438.667 440.333L438.333 439.667M582.333 439.667L582.667 440.333L582.333 439.667M376 440L377 441L376 440M422.333 440.667L422.667 441.333L422.333 440.667M374 441L375 442L374 441M439 441L440 442L439 441M581 441L582 442L581 441M635 441L636 442L635 441M372 442L373 443L372 442M440 442L441 443L440 442M634 442L635 443L634 442M370 443L371 444L370 443M580 443L581 444L580 443M632.667 443.333L633.333 443.667L632.667 443.333M262 444L262 447L263 447L262 444M367 444L368 445L367 444M441 444L442 445L441 444M579 444L580 445L579 444M365 445L366 446L365 445M442 445L443 446L442 445M578 445L579 446L578 445M630 445L631 446L630 445M363 446L364 447L363 446M629 446L630 447L629 446M263.333 447.667L263.667 448.333L263.333 447.667M361 447L362 448L361 447M443 447L444 448L443 447M577 447L578 448L577 447M628 447L629 448L628 447M359 448L360 449L359 448M444 448L445 449L444 448M576 448L577 449L576 448M357 449L358 450L357 449M445 449L446 450L445 449M575 449L576 450L575 449M625 449L626 450L625 449M355 450L356 451L355 450M422 450L423 451L422 450M446 450L447 451L446 450M624 450L625 451L624 450M264 451L265 452L264 451M353 451L354 452L353 451M623 451L624 452L623 451M447 452L448 453L447 452M573 452L574 453L573 452M622 452L623 453L622 452M265.333 453.667L265.667 454.333L265.333 453.667M348 453L349 454L348 453M421 453L422 454L421 453M448 453L449 454L448 453M572 453L573 454L572 453M346.667 454.333L347.333 454.667L346.667 454.333M449 454L450 455L449 454M571 454L572 455L571 454M619 454L620 455L619 454M266.333 455.667L266.667 456.333L266.333 455.667M344 455L345 456L344 455M420 455L421 456L420 455M450 455L451 456L450 455M570 455L571 456L570 455M618 455L619 456L618 455M342 456L343 457L342 456M419 456L420 457L419 456M451 456L452 457L451 456M569 456L570 457L569 456M267 457L268 458L267 457M340 457L341 458L340 457M452 457L453 458L452 457M568 457L569 458L568 457M615 457L616 458L615 457M338 458L339 459L338 458M453 458L454 459L453 458M567 458L568 459L567 458M614 458L615 459L614 458M336 459L337 460L336 459M416 459L417 460L416 459M454 459L455 460L454 459M566 459L567 460L566 459M613 459L614 460L613 459M249 501L274 489L261 460C238.361 465.377 239.166 484.148 249 501M268 460L269 461L268 460M334 460L335 461L334 460M415 460L416 461L415 460M456 460L457 461L456 460M564.667 460.333L565.333 460.667L564.667 460.333M413 461L414 462L413 461M457 461L458 462L457 461M563 461L564 462L563 461M610 461L611 462L610 461M269 462L270 463L269 462M329.667 462.333L330.333 462.667L329.667 462.333M411 462L412 463L411 462M458 462L459 463L458 462M562 462L563 463L562 462M609 462L610 463L609 462M270.333 463.667L270.667 464.333L270.333 463.667M328 463L329 464L328 463M409 463L410 464L409 463M459 463L460 464L459 463M561 463L562 464L561 463M607 463L608 464L607 463M325 464L326 465L325 464M407 464L408 465L407 464M460 464L461 465L460 464M559 464L560 465L559 464M606 464L607 465L606 464M323 465L324 466L323 465M405 465L406 466L405 465M462 465L463 466L462 465M558 465L559 466L558 465M605 465L606 466L605 465M271 466L272 467L271 466M321 466L322 467L321 466M403 466L404 467L403 466M463.667 466.333L464.333 466.667L463.667 466.333M556.667 466.333L557.333 466.667L556.667 466.333M319 467L320 468L319 467M401 467L402 468L401 467M465 467L466 468L465 467M555 467L556 468L555 467M602 467L603 468L602 467M272 468L273 469L272 468M317 468L318 469L317 468M399 468L400 469L399 468M466.667 468.333L467.333 468.667L466.667 468.333M553.667 468.333L554.333 468.667L553.667 468.333M601 468L602 469L601 468M315 469L316 470L315 469M397 469L398 470L397 469M468 469L469 470L468 469M552 469L553 470L552 469M599 469L600 470L599 469M273 470L274 474L275 474L273 470M312.667 470.333L313.333 470.667L312.667 470.333M394 470L395 471L394 470M470 470L471 471L470 470M550 470L551 471L550 470M598 470L599 471L598 470M310.667 471.333L311.333 471.667L310.667 471.333M392 471L393 472L392 471M472 471L473 472L472 471M545 472L545 473L549 472L545 472M597 471L598 472L597 471M309 472L310 473L309 472M474.667 472.333L475.333 472.667L474.667 472.333M306 473L307 474L306 473M388 473L389 474L388 473M476.667 473.333L477.333 473.667L476.667 473.333M543.667 473.333L544.333 473.667L543.667 473.333M594 473L595 474L594 473M275 474L276 475L275 474M304 474L305 475L304 474M386 474L387 475L386 474M479 474L480 475L479 474M541 474L542 475L541 474M301 475L301 476L304 476L301 475M384 475L385 476L384 475M481.667 475.333L482.333 475.667L481.667 475.333M538.667 475.333L539.333 475.667L538.667 475.333M591 475L592 476L591 475M300 476L301 477L300 476M382 476L383 477L382 476M484.667 476.333L485.333 476.667L484.667 476.333M535 476L535 477L538 477L535 476M589.667 476.333L590.333 476.667L589.667 476.333M276 477L277 478L276 477M298 477L299 478L298 477M380 477L381 478L380 477M488.667 477.333L489.333 477.667L488.667 477.333M531 477L531 478L534 478L531 477M588 477L589 478L588 477M296 478L297 479L296 478M491 478L491 479L494 479L491 478M527 478L527 479L531 479L527 478M587 478L588 479L587 478M277 479L278 480L277 479M293.667 479.333L294.333 479.667L293.667 479.333M375.667 479.333L376.333 479.667L375.667 479.333M494 479L495 480L494 479M496 479L496 480L499 480L496 479M520 479L520 480L524 480L520 479M278.333 480.667L278.667 481.333L278.333 480.667M291.667 480.333L292.333 480.667L291.667 480.333M374 480L375 481L374 480M501 480L501 481L505 481L501 480M506 480L506 481L519 481L506 480M584 480L585 481L584 480M290 481L291 482L290 481M582 481L583 482L582 481M279.333 482.667L279.667 483.333L279.333 482.667M287 482L288 483L287 482M369 482L370 483L369 482M581 482L582 483L581 482M285 483L286 484L285 483M367 483L368 484L367 483M580 483L581 484L580 483M283.667 484.333L284.333 484.667L283.667 484.333M365 484L366 485L365 484M578 484L579 485L578 484M280.667 485.333L281.333 485.667L280.667 485.333M363 485L364 486L363 485M577 485L578 486L577 485M361 486L362 487L361 486M575 486L576 487L575 486M359 487L360 488L359 487M357 488L358 489L357 488M572 488L573 489L572 488M570.667 489.333L571.333 489.667L570.667 489.333M352 490L353 491L352 490M350 491L351 492L350 491M568 491L569 492L568 491M348 492L349 493L348 492M566 492L567 493L566 492M346 493L347 494L346 493M565 493L566 494L565 493M344 494L345 495L344 494M563 494L564 495L563 494M342 495L343 496L342 495M562 495L563 496L562 495M340 496L341 497L340 496M560 496L561 497L560 496M338 497L339 498L338 497M557 498L558 499L557 498M333 499L334 500L333 499M555 499L556 500L555 499M331 500L332 501L331 500M553.667 500.333L554.333 500.667L553.667 500.333M329 501L330 502L329 501M552 501L553 502L552 501M327 502L328 503L327 502M325.667 503.333L326.333 503.667L325.667 503.333M549 503L550 504L549 503z"/>
<path style="fill:#e9172b; stroke:none;" d="M217 557L216 557C218.006 572.875 207.062 581.985 195 591.102C169.906 610.069 138.53 616.264 108 619.17C94.5235 620.452 73.0529 620.329 65.0093 606.996C56.4085 592.74 75.9782 571.264 85.0147 562C104.677 541.842 129.332 523.185 157 515.884C174.279 511.325 185.853 509.639 200 521C187.944 499.371 167.276 502.597 146 507.003C103.509 515.803 64.436 545.169 36.1667 577C25.1999 589.348 7.12887 611.949 13.9946 630C22.5197 652.413 60.1758 649.409 79 648.089C118.985 645.287 163.48 634.052 195 608.076C203.497 601.074 217.76 590.255 220.566 579C222.262 572.2 218.372 563.646 217 557z"/>
<path style="fill:#399cde; stroke:none;" d="M323.667 504.333L324.333 504.667L323.667 504.333M547 504L548 505L547 504M321 505L322 506L321 505M545.667 505.333L546.333 505.667L545.667 505.333M544 506L545 507L544 506M316.667 507.333L317.333 507.667L316.667 507.333M542 507L543 508L542 507M314.667 508.333L315.333 508.667L314.667 508.333M539 509L540 510L539 509M310 510L311 511L310 510M537 510L538 511L537 510M308 511L309 512L308 511M536 511L537 512L536 511z"/>
<path style="fill:#eacf04; stroke:none;" d="M172 512.439C137.077 517.882 104.329 538.52 81.2894 565C76.9609 569.975 72.8328 575.33 69.4529 581C67.3972 584.449 65.4176 588.156 64.2207 592C54.7088 622.551 100.737 620.957 119 618.714C151.408 614.734 198.843 602.477 215.567 571C219.393 563.799 215.236 553.971 212.681 547C205.193 526.57 196.491 508.622 172 512.439z"/>
<path style="fill:#399cde; stroke:none;" d="M306.667 512.333L307.333 512.667L306.667 512.333M534 512L535 513L534 512M304 513L305 514L304 513M532 513L533 514L532 513M302 514L303 515L302 514M530 514L531 515L530 514M299.667 515.333L300.333 515.667L299.667 515.333M528.667 515.333L529.333 515.667L528.667 515.333M297.667 516.333L298.333 516.667L297.667 516.333M527 516L528 517L527 516M296 517L297 518L296 517M525 517L526 518L525 517M523 518L524 519L523 518M296 519L297 520L296 519M521 519L522 520L521 519M519.667 520.333L520.333 520.667L519.667 520.333M264 532C270.086 553.125 283.719 559.83 303 550L289 521L264 532M297 521L298 522L297 521M518 521L519 522L518 521z"/>
<path style="fill:#e9172b; stroke:none;" d="M200 522L201 523L200 522M201 523L202 524L201 523z"/>
<path style="fill:#399cde; stroke:none;" d="M298 523L299 527L300 527L298 523M513 523L514 524L513 523M511.667 524.333L512.333 524.667L511.667 524.333M509.667 525.333L510.333 525.667L509.667 525.333M508 526L509 527L508 526M300 527L301 528L300 527M506 527L507 528L506 527M504 528L505 529L504 528M501.667 529.333L502.333 529.667L501.667 529.333M205 530L206 531L205 530M500 530L501 531L500 530M498 531L499 532L498 531M206 532L207 533L206 532M302 532L303 533L302 532M496 532L497 533L496 532M303.333 533.667L303.667 534.333L303.333 533.667M493.667 533.333L494.333 533.667L493.667 533.333M492 534L493 535L492 534M304 535L305 536L304 535M489 535L490 536L489 535z"/>
<path style="fill:#e9172b; stroke:none;" d="M208 536L209 537L208 536z"/>
<path style="fill:#399cde; stroke:none;" d="M486.667 536.333L487.333 536.667L486.667 536.333M484.667 537.333L485.333 537.667L484.667 537.333M305 538L306 539L305 538M483 538L484 539L483 538M480 539L481 540L480 539M306 540L307 541L306 540M477.667 540.333L478.333 540.667L477.667 540.333M210 541L211 542L210 541M307 541L307 544L308 544L307 541M474 541L474 542L477 542L474 541M473 542L474 543L473 542z"/>
<path style="fill:#e9172b; stroke:none;" d="M211 543L212 544L211 543z"/>
<path style="fill:#399cde; stroke:none;" d="M470 543L471 544L470 543M308 544L309 545L308 544M467.667 544.333L468.333 544.667L467.667 544.333M465.667 545.333L466.333 545.667L465.667 545.333z"/>
<path style="fill:#e9172b; stroke:none;" d="M212 546L213 547L212 546z"/>
<path style="fill:#399cde; stroke:none;" d="M309 546L310 547L309 546M462 546L463 547L462 546M459.667 547.333L460.333 547.667L459.667 547.333M457.667 548.333L458.333 548.667L457.667 548.333M213 549L214 550L213 549M310 549L311 550L310 549M454.667 549.333L455.333 549.667L454.667 549.333M311.333 550.667L311.667 551.333L311.333 550.667M451 550L452 551L451 550z"/>
<path style="fill:#e9172b; stroke:none;" d="M214 551L215 552L214 551z"/>
<path style="fill:#399cde; stroke:none;" d="M448.667 551.333L449.333 551.667L448.667 551.333M312 552L313 553L312 552M446 552L447 553L446 552M441.667 553.333L442.333 553.667L441.667 553.333z"/>
<path style="fill:#e9172b; stroke:none;" d="M215.333 554.667L215.667 555.333L215.333 554.667z"/>
<path style="fill:#399cde; stroke:none;" d="M313 554L314 555L313 554M439.667 554.333L440.333 554.667L439.667 554.333z"/>
<path style="fill:#e9172b; stroke:none;" d="M465 554C441.557 558.034 418.716 568.321 395 572.739C389.353 573.791 373.649 572.794 370.029 577.589C367.214 581.316 370.229 591.353 369.91 596C368.807 612.109 367.401 628.295 363.265 644C359.55 658.112 352.725 671.125 348.789 685C347.29 690.282 347.779 696.618 352.214 700.362C366.184 712.155 391.578 690.534 402 681.725C438.235 651.098 464.006 602.157 465 554z"/>
<path style="fill:#399cde; stroke:none;" d="M435.667 555.333L436.333 555.667L435.667 555.333M431 556L431 557L434 557L431 556M315 557L316 558L315 557M428.667 557.333L429.333 557.667L428.667 557.333M316 558L317 559L316 558M424.667 558.333L425.333 558.667L424.667 558.333M317 559L318 560L317 559M421 559L421 560L424 560L421 559M318 560L319 561L318 560M416 560L416 561L419 561L416 560M319 561L320 562L319 561M413 561L413 562L416 562L413 561M320 562L321 563L320 562M408 562L408 563L411 563L408 562M322 563L323 564L322 563M404 563L404 564L407 564L404 563M323.667 564.333L324.333 564.667L323.667 564.333M397 564L397 565L400 565L397 564M325 565L326 566L325 565M393 565L393 566L397 566L393 565M326.667 566.333L327.333 566.667L326.667 566.333M386 566L386 567L390 567L386 566M329 567L330 568L329 567M377 567L377 568L381 568L377 567M331 568L331 569L335 569L331 568M368 568L368 569L372 569L368 568M335 569L335 570L339 570L335 569M341 569L341 570L345 570L341 569M350 569L350 570L363 570L350 569z"/>
</svg>
